<svg xmlns="http://www.w3.org/2000/svg" viewBox="0 0 320 320" role="img" aria-label="Decoração de perfil">
  <defs><linearGradient id="g" x1="0" y1="0" x2="1" y2="1"><stop stop-color="#c5f1ff"/><stop offset="1" stop-color="#7b6df2"/></linearGradient></defs>
  <path fill="url(#g)" d="M157 304c-17-23-42-28-67-17-16 7-32-2-27-19 5-17 19-26 38-29-30-10-45-37-33-57 11-19 31-24 54-19-25-19-31-51-11-68 19-16 42-11 60 9-4-28 9-54 32-58 26-5 45 14 47 42 15-20 38-30 57-17 20 14 16 43-5 61 27-2 49 11 50 35 1 24-22 39-49 39 25 11 38 32 27 52-11 20-36 23-61 13 10 19 4 38-14 43-19 5-34-5-43-20z"/>
  <path fill="#111a2e" d="M157 218c-26-18-40-43-37-76 3-35 23-57 46-65 23 8 43 30 46 65 3 33-11 58-37 76z"/>
</svg>
